<?xml version="1.0" standalone="no"?>
<!DOCTYPE svg PUBLIC "-//W3C//DTD SVG 20010904//EN"
 "http://www.w3.org/TR/2001/REC-SVG-20010904/DTD/svg10.dtd">
<svg version="1.0" xmlns="http://www.w3.org/2000/svg"
 width="512.000000pt" height="512.000000pt" viewBox="0 0 512.000000 512.000000"
 preserveAspectRatio="xMidYMid meet">
<metadata>
Created by potrace 1.14, written by Peter Selinger 2001-2017
</metadata>
<g transform="translate(0.000000,512.000000) scale(0.100000,-0.100000)"
fill="#000000" stroke="none">
<path d="M1846 4198 c-9 -12 -16 -41 -16 -63 0 -73 53 -111 93 -67 22 25 23
115 1 136 -22 23 -60 20 -78 -6z"/>
<path d="M2812 4186 l-37 -34 -3 -976 -2 -976 -210 0 c-226 0 -262 -6 -294
-51 -14 -20 -16 -56 -16 -246 l0 -223 -250 0 c-169 0 -250 -3 -250 -11 0 -5 5
-30 11 -55 l11 -44 1208 0 c1157 0 1208 1 1223 18 16 17 17 97 17 943 0 909 0
925 -20 957 -24 40 -73 62 -135 62 -43 0 -45 1 -45 28 0 61 -57 94 -93 54 -10
-10 -17 -33 -17 -50 0 -32 -1 -32 -50 -32 l-50 0 0 33 c0 60 -63 90 -94 45 -9
-12 -16 -35 -16 -50 l0 -28 -100 0 -100 0 0 278 c0 250 -2 281 -19 319 -33 71
-42 73 -356 73 l-275 0 -38 -34z m576 -1288 l2 -1218 -260 0 -260 0 0 1208 c0
936 3 1211 12 1220 9 9 75 12 258 10 l245 -3 3 -1217z m730 -340 l2 -878 -310
0 -310 0 0 880 0 880 308 -2 307 -3 3 -877z m-1348 -673 l0 -205 -210 0 -210
0 0 205 0 205 210 0 210 0 0 -205z"/>
<path d="M2996 4007 c-11 -8 -18 -26 -18 -42 0 -47 22 -55 157 -55 105 0 124
2 138 18 22 25 21 48 -3 72 -18 18 -33 20 -138 20 -82 0 -124 -4 -136 -13z"/>
<path d="M2998 3799 c-25 -14 -24 -75 1 -89 11 -5 72 -10 135 -10 103 0 118 2
136 20 26 26 25 55 -2 74 -17 12 -49 16 -138 16 -63 0 -123 -5 -132 -11z"/>
<path d="M2992 3588 c-18 -18 -14 -65 7 -80 13 -9 56 -13 141 -13 109 0 123 2
136 20 18 25 18 50 -2 69 -12 13 -40 16 -143 16 -85 0 -131 -4 -139 -12z"/>
<path d="M2992 3378 c-7 -7 -12 -24 -12 -38 0 -46 14 -50 157 -50 133 0 133 0
145 25 8 19 8 31 0 50 -12 25 -12 25 -145 25 -90 0 -137 -4 -145 -12z"/>
<path d="M3050 3182 c-55 -4 -70 -16 -70 -53 0 -42 24 -49 159 -49 126 0 151
8 151 49 0 40 -22 51 -110 54 -47 1 -105 1 -130 -1z"/>
<path d="M2996 2967 c-11 -8 -18 -26 -18 -42 0 -47 22 -55 157 -55 105 0 124
2 138 18 22 25 21 48 -3 72 -18 18 -33 20 -138 20 -82 0 -124 -4 -136 -13z"/>
<path d="M2998 2759 c-25 -14 -24 -75 1 -89 11 -5 72 -10 135 -10 103 0 118 2
136 20 26 26 25 55 -2 74 -17 12 -49 16 -138 16 -63 0 -123 -5 -132 -11z"/>
<path d="M2992 2548 c-17 -17 -15 -63 3 -78 17 -14 211 -22 254 -11 37 10 51
54 26 81 -16 18 -30 20 -145 20 -85 0 -130 -4 -138 -12z"/>
<path d="M2992 2338 c-7 -7 -12 -24 -12 -38 0 -46 14 -50 157 -50 133 0 133 0
145 25 8 19 8 31 0 50 -12 25 -12 25 -145 25 -90 0 -137 -4 -145 -12z"/>
<path d="M3050 2142 c-54 -4 -70 -16 -70 -53 0 -42 24 -49 159 -49 126 0 151
8 151 49 0 42 -22 53 -111 55 -46 1 -104 0 -129 -2z"/>
<path d="M2996 1927 c-11 -8 -18 -26 -18 -42 0 -47 22 -55 157 -55 105 0 124
2 138 18 22 25 21 48 -3 72 -18 18 -33 20 -138 20 -82 0 -124 -4 -136 -13z"/>
<path d="M3616 3325 c-19 -19 -20 -38 -6 -66 16 -28 109 -27 136 2 17 19 17
23 3 47 -12 23 -22 27 -66 30 -36 2 -55 -2 -67 -13z"/>
<path d="M3876 3325 c-19 -19 -20 -38 -6 -66 16 -28 109 -27 136 2 17 19 17
23 3 47 -12 23 -22 27 -66 30 -36 2 -55 -2 -67 -13z"/>
<path d="M3616 3114 c-41 -40 -7 -84 64 -84 42 0 52 4 66 25 15 23 15 27 0 50
-14 21 -24 25 -66 25 -31 0 -54 -6 -64 -16z"/>
<path d="M3876 3114 c-19 -18 -20 -38 -6 -65 9 -15 22 -19 65 -19 47 0 57 3
71 25 15 23 15 27 0 50 -14 21 -24 25 -66 25 -31 0 -54 -6 -64 -16z"/>
<path d="M3610 2899 c-16 -30 -4 -68 24 -75 12 -3 40 -4 62 -2 29 2 42 9 53
30 14 24 14 28 -3 47 -28 30 -120 30 -136 0z"/>
<path d="M3870 2901 c-26 -50 1 -81 70 -81 39 0 52 4 64 22 34 48 8 78 -69 78
-43 0 -56 -4 -65 -19z"/>
<path d="M3622 2704 c-50 -35 -14 -94 56 -94 44 0 82 26 82 55 0 47 -90 73
-138 39z"/>
<path d="M3882 2704 c-50 -35 -14 -94 56 -94 44 0 82 26 82 55 0 47 -90 73
-138 39z"/>
<path d="M3617 2492 c-39 -43 -4 -92 65 -92 40 0 78 27 78 55 0 49 -107 77
-143 37z"/>
<path d="M3877 2492 c-39 -43 -4 -92 65 -92 40 0 78 27 78 55 0 49 -107 77
-143 37z"/>
<path d="M3616 2285 c-19 -19 -20 -38 -6 -66 16 -28 109 -27 136 2 17 19 17
23 3 47 -12 23 -22 27 -66 30 -36 2 -55 -2 -67 -13z"/>
<path d="M3876 2285 c-19 -19 -20 -38 -6 -66 16 -28 109 -27 136 2 17 19 17
23 3 47 -12 23 -22 27 -66 30 -36 2 -55 -2 -67 -13z"/>
<path d="M3616 2074 c-41 -40 -7 -84 64 -84 42 0 52 4 66 25 15 23 15 27 0 50
-14 21 -24 25 -66 25 -31 0 -54 -6 -64 -16z"/>
<path d="M3876 2074 c-19 -18 -20 -38 -6 -65 9 -15 22 -19 65 -19 47 0 57 3
71 25 15 23 15 27 0 50 -14 21 -24 25 -66 25 -31 0 -54 -6 -64 -16z"/>
<path d="M3610 1859 c-16 -30 -4 -68 24 -75 12 -3 40 -4 62 -2 29 2 42 9 53
30 14 24 14 28 -3 47 -28 30 -120 30 -136 0z"/>
<path d="M3870 1859 c-16 -30 -4 -68 24 -75 12 -3 40 -4 62 -2 29 2 42 9 53
30 14 24 14 28 -3 47 -28 30 -120 30 -136 0z"/>
<path d="M2491 1991 c-26 -48 3 -81 71 -81 58 0 86 27 72 68 -9 25 -14 27 -71
30 -53 3 -63 0 -72 -17z"/>
<path d="M2500 1840 c-11 -11 -20 -27 -20 -35 0 -29 38 -55 80 -55 42 0 80 26
80 55 0 29 -38 55 -80 55 -27 0 -47 -7 -60 -20z"/>
<path d="M1658 4189 c-23 -13 -23 -46 1 -102 21 -49 48 -65 80 -48 30 17 33
44 11 97 -28 64 -51 77 -92 53z"/>
<path d="M2043 4188 c-6 -7 -18 -34 -28 -60 -16 -44 -16 -49 -1 -73 32 -49 78
-26 102 50 17 52 17 55 -1 75 -20 22 -57 26 -72 8z"/>
<path d="M1497 4072 c-26 -29 -20 -52 23 -94 48 -45 82 -49 105 -14 20 30 11
49 -40 95 -41 35 -65 39 -88 13z"/>
<path d="M2172 4045 c-46 -43 -47 -45 -32 -72 24 -43 57 -41 108 6 47 43 51
62 22 91 -29 29 -46 25 -98 -25z"/>
<path d="M1799 3965 c-56 -18 -133 -84 -160 -136 -25 -50 -35 -120 -20 -148 8
-14 21 -21 40 -21 35 0 46 13 55 65 10 55 47 109 89 128 52 25 136 22 178 -6
38 -25 79 -97 79 -139 0 -18 8 -33 25 -44 23 -15 27 -15 50 0 31 21 33 64 5
138 -50 133 -204 207 -341 163z"/>
<path d="M1404 3905 c-15 -23 -15 -27 0 -50 19 -29 102 -57 128 -44 27 15 40
46 29 68 -11 19 -88 51 -123 51 -9 0 -25 -11 -34 -25z"/>
<path d="M2262 3913 c-23 -8 -47 -24 -53 -34 -14 -26 -2 -58 24 -68 24 -9 98
9 122 29 22 18 19 67 -4 80 -25 13 -36 12 -89 -7z"/>
<path d="M1379 3739 c-20 -20 -19 -51 2 -73 13 -14 104 -19 128 -7 29 16 28
65 -1 85 -33 23 -103 21 -129 -5z"/>
<path d="M2263 3750 c-32 -13 -35 -65 -5 -87 22 -18 93 -16 120 3 27 18 29 55
4 77 -20 18 -82 22 -119 7z"/>
<path d="M1210 3556 c-71 -16 -132 -36 -147 -49 -7 -5 -13 -22 -13 -38 0 -34
3 -36 120 -75 52 -17 123 -45 157 -62 50 -26 63 -37 68 -62 5 -22 17 -36 47
-51 25 -13 44 -32 53 -52 l13 -32 -78 -17 c-164 -35 -278 -124 -349 -270 -42
-88 -65 -167 -76 -259 -6 -50 -4 -60 14 -78 12 -12 26 -21 32 -21 6 0 52 39
102 88 143 136 171 155 213 147 29 -5 43 -1 74 20 28 19 48 25 74 23 l36 -3
-49 -70 c-103 -148 -187 -347 -229 -545 -36 -165 -45 -290 -40 -517 l6 -213
-53 0 c-30 0 -73 8 -98 19 -109 47 -187 36 -187 -25 0 -38 21 -54 69 -54 17 0
54 -9 83 -21 29 -11 85 -23 123 -26 59 -5 82 -1 146 21 95 33 153 33 248 0 64
-22 87 -26 146 -21 39 3 92 15 118 26 64 28 150 28 214 0 26 -11 80 -23 118
-26 59 -5 82 -1 146 21 93 32 160 33 236 4 77 -30 193 -30 277 1 75 27 137 27
212 -1 83 -30 208 -30 284 0 71 28 143 28 217 0 43 -17 79 -23 138 -23 59 0
95 6 138 23 75 29 139 28 231 -3 117 -39 176 -31 176 25 0 35 -31 60 -75 60
-16 0 -55 10 -85 22 -75 29 -192 29 -274 -1 -75 -27 -147 -27 -222 0 -82 30
-190 30 -269 1 -76 -28 -153 -28 -230 0 -80 29 -188 29 -269 -1 -75 -27 -147
-27 -222 0 -82 30 -200 30 -272 1 -70 -29 -154 -29 -224 0 -40 16 -74 22 -138
22 -64 0 -98 -6 -138 -22 -29 -12 -59 -22 -67 -22 -16 0 -50 71 -71 150 -44
168 -57 431 -30 636 19 139 29 185 68 312 l31 102 23 -39 c19 -34 21 -46 13
-82 -9 -37 -7 -47 11 -71 l21 -29 -21 -77 c-12 -42 -37 -114 -57 -160 -30 -70
-34 -87 -24 -108 17 -38 57 -31 145 26 110 72 197 164 243 257 37 76 38 79 38
195 0 66 4 118 9 118 5 0 22 -14 36 -32 22 -26 35 -32 64 -32 33 0 44 -7 83
-50 25 -28 73 -93 106 -143 69 -105 90 -119 124 -79 21 25 23 37 23 139 0 169
-44 305 -128 399 -51 58 -144 115 -223 139 l-67 20 20 35 c13 21 36 41 65 54
31 14 48 29 56 49 9 25 22 33 80 51 37 12 113 30 169 40 55 10 104 22 110 28
5 5 8 22 6 38 -4 37 -75 81 -196 120 -74 25 -103 29 -198 29 -107 0 -112 -1
-186 -38 -58 -28 -92 -54 -142 -108 -36 -39 -66 -75 -66 -80 0 -24 -18 -5 -28
29 -39 130 -181 259 -327 298 -61 17 -230 16 -305 0z m332 -118 c102 -47 196
-157 213 -250 6 -31 4 -38 -9 -38 -9 0 -25 -5 -35 -11 -27 -18 -107 40 -132
95 -12 29 -29 47 -54 59 -23 11 -35 24 -35 37 0 27 -25 47 -122 98 l-83 42
101 -3 c81 -3 111 -9 156 -29z m860 -101 l33 -14 -55 -13 c-96 -23 -160 -56
-171 -88 -7 -20 -20 -32 -42 -39 -20 -5 -42 -23 -59 -49 -17 -26 -44 -48 -77
-63 l-50 -24 -25 29 c-30 35 -30 36 -10 77 45 88 150 175 238 198 43 11 177 3
218 -14z m-546 -305 c47 -38 56 -88 24 -139 -45 -75 -170 -53 -186 33 -8 42 2
71 34 101 31 28 96 31 128 5z m-263 -13 c2 -2 1 -29 -1 -59 -3 -49 -7 -57 -34
-73 -20 -12 -41 -15 -66 -11 -29 4 -45 0 -74 -20 -29 -19 -45 -24 -72 -19 -37
6 -89 -24 -168 -95 -49 -44 -51 -24 -6 60 63 118 143 183 263 214 45 12 150
14 158 3z m532 -110 c138 -25 244 -101 296 -212 26 -56 54 -165 45 -174 -2 -2
-22 21 -46 52 -62 80 -105 115 -142 115 -22 0 -42 10 -64 31 -21 21 -45 32
-74 36 -32 5 -54 18 -96 55 -57 53 -63 67 -38 92 18 19 40 20 119 5z m-166
-172 c75 -110 89 -245 36 -353 -23 -47 -122 -170 -131 -162 -1 2 6 35 17 73
22 81 24 143 5 168 -9 11 -12 33 -8 62 3 31 0 52 -12 69 -19 30 -22 125 -3
148 12 16 46 37 59 38 4 0 20 -19 37 -43z m-296 -12 c-3 -9 -8 -14 -10 -11 -3
3 -2 9 2 15 9 16 15 13 8 -4z m-13 -33 c0 -5 -7 -9 -15 -9 -8 0 -12 4 -9 9 3
4 9 8 15 8 5 0 9 -4 9 -8z m-25 -51 c3 -5 2 -12 -3 -15 -5 -3 -9 1 -9 9 0 17
3 19 12 6z m-32 -121 c-3 -11 -9 -17 -15 -14 -5 3 -4 12 3 20 16 19 18 18 12
-6z m-123 -134 c0 -2 -8 -10 -17 -17 -16 -13 -17 -12 -4 4 13 16 21 21 21 13z
m47 -333 c-3 -10 -5 -4 -5 12 0 17 2 24 5 18 2 -7 2 -21 0 -30z m-160 -35 c-3
-8 -6 -5 -6 6 -1 11 2 17 5 13 3 -3 4 -12 1 -19z m160 -185 c-3 -10 -5 -2 -5
17 0 19 2 27 5 18 2 -10 2 -26 0 -35z m-180 -20 c-3 -10 -5 -2 -5 17 0 19 2
27 5 18 2 -10 2 -26 0 -35z m200 -155 c-3 -8 -6 -5 -6 6 -1 11 2 17 5 13 3 -3
4 -12 1 -19z m-200 -70 c-2 -13 -4 -5 -4 17 -1 22 1 32 4 23 2 -10 2 -28 0
-40z m217 -13 c5 -22 4 -26 -4 -15 -5 8 -10 24 -10 34 0 26 6 18 14 -19z m30
-119 c-3 -9 -12 -12 -22 -9 -15 6 -9 11 25 22 1 1 0 -5 -3 -13z"/>
<path d="M922 1664 c-27 -18 -29 -55 -4 -77 27 -24 217 -25 208 -1 -3 9 -6 33
-6 55 l0 39 -88 0 c-63 0 -94 -4 -110 -16z"/>
<path d="M912 1248 c-7 -7 -12 -24 -12 -39 0 -34 32 -59 75 -59 16 0 62 -11
100 -25 89 -31 145 -31 242 0 97 31 161 31 238 3 82 -30 199 -30 274 1 72 29
150 29 221 0 76 -31 192 -32 275 -1 75 28 145 28 221 1 82 -30 190 -30 269 -1
76 28 153 28 230 0 80 -29 188 -29 269 1 76 27 150 27 228 -1 82 -30 189 -29
272 1 74 26 145 27 219 1 126 -44 187 -37 187 24 0 41 -12 52 -71 60 -25 4
-69 16 -98 26 -72 28 -193 27 -258 -1 -64 -28 -159 -28 -237 0 -81 29 -186 28
-263 -1 -74 -29 -159 -28 -233 1 -75 29 -190 29 -257 0 -65 -28 -159 -28 -237
0 -81 29 -186 28 -263 -1 -34 -13 -81 -22 -113 -22 -32 0 -79 9 -113 22 -42
16 -80 22 -137 22 -57 0 -95 -6 -137 -22 -34 -13 -81 -22 -113 -22 -32 0 -79
9 -113 22 -80 30 -196 30 -264 0 -66 -29 -171 -29 -233 0 -50 24 -148 30 -168
10z"/>
<path d="M906 1034 c-19 -48 1 -84 46 -84 16 0 61 -11 100 -25 50 -18 92 -25
143 -25 51 0 93 7 143 25 39 14 88 25 107 25 19 0 68 -11 107 -25 96 -34 188
-34 283 0 39 13 86 25 105 25 19 0 67 -12 105 -25 90 -32 192 -34 267 -5 88
34 142 35 231 6 101 -34 180 -34 281 -1 95 31 116 31 213 0 102 -33 184 -33
286 0 97 31 116 31 211 0 102 -33 181 -33 283 1 89 29 143 28 231 -6 58 -22
142 -26 160 -8 15 15 15 61 0 76 -7 7 -23 12 -36 12 -13 0 -57 11 -98 25 -97
33 -205 34 -290 4 -75 -26 -143 -26 -218 0 -80 28 -192 28 -272 0 -75 -27
-167 -28 -215 -3 -23 12 -63 19 -127 22 -78 4 -102 1 -155 -18 -79 -29 -147
-30 -220 -2 -75 29 -190 30 -273 3 -103 -34 -122 -34 -209 -7 -102 33 -221 36
-288 7 -80 -34 -125 -36 -209 -7 -99 34 -211 36 -295 4 -32 -12 -80 -22 -108
-22 -27 0 -76 10 -108 22 -71 27 -172 30 -181 6z"/>
</g>
</svg>
